<?xml version="1.0" encoding="UTF-8" standalone="no"?>
<!-- Created with Inkscape (http://www.inkscape.org/) -->

<svg
   xmlns:dc="http://purl.org/dc/elements/1.1/"
   xmlns:cc="http://creativecommons.org/ns#"
   xmlns:rdf="http://www.w3.org/1999/02/22-rdf-syntax-ns#"
   xmlns:svg="http://www.w3.org/2000/svg"
   xmlns="http://www.w3.org/2000/svg"
   xmlns:sodipodi="http://sodipodi.sourceforge.net/DTD/sodipodi-0.dtd"
   xmlns:inkscape="http://www.inkscape.org/namespaces/inkscape"
   width="223.23044"
   height="223.23044"
   viewBox="0 0 59.063051 59.063054"
   version="1.1"
   id="svg831"
   inkscape:version="0.92.3 (2405546, 2018-03-11)"
   sodipodi:docname="final equidistant path.svg"
   inkscape:export-filename="C:\Users\Sergey Shakhdinarov\Documents\dgi\logo\new\CamelCase\final equidistant.png"
   inkscape:export-xdpi="270.13"
   inkscape:export-ydpi="270.13">
  <defs
     id="defs825" />
  <sodipodi:namedview
     id="base"
     pagecolor="#ffffff"
     bordercolor="#666666"
     borderopacity="1.0"
     inkscape:pageopacity="0"
     inkscape:pageshadow="2"
     inkscape:zoom="2"
     inkscape:cx="107.26372"
     inkscape:cy="27.248114"
     inkscape:document-units="mm"
     inkscape:current-layer="layer1"
     showgrid="false"
     inkscape:window-width="1748"
     inkscape:window-height="1051"
     inkscape:window-x="-9"
     inkscape:window-y="-9"
     inkscape:window-maximized="1"
     fit-margin-top="5"
     fit-margin-left="5"
     fit-margin-right="5"
     fit-margin-bottom="5"
     units="px"
     inkscape:measure-start="204.75,46.625"
     inkscape:measure-end="204.625,1.875" />
  <metadata
     id="metadata828">
    <rdf:RDF>
      <cc:Work
         rdf:about="">
        <dc:format>image/svg+xml</dc:format>
        <dc:type
           rdf:resource="http://purl.org/dc/dcmitype/StillImage" />
        <dc:title></dc:title>
      </cc:Work>
    </rdf:RDF>
  </metadata>
  <rect
     style="fill:none;fill-opacity:1;fill-rule:nonzero;stroke:#f1af09;stroke-width:0.58685708;stroke-miterlimit:4;stroke-dasharray:none;stroke-opacity:1"
     id="rect4529"
     width="55.830364"
     height="55.830364"
     x="1.6163452"
     y="1.6163452" />
  <g
     inkscape:label="Layer 1"
     inkscape:groupmode="layer"
     id="layer1"
     transform="translate(-54.997781,-67.924404)">
    <g
       id="g1416">
      <g
         aria-label="Digital"
         style="font-style:normal;font-variant:normal;font-weight:normal;font-stretch:normal;font-size:10.58333302px;line-height:1.25;font-family:Play;-inkscape-font-specification:'Play, Normal';font-variant-ligatures:normal;font-variant-caps:normal;font-variant-numeric:normal;font-feature-settings:normal;text-align:start;letter-spacing:0px;word-spacing:0px;writing-mode:lr-tb;text-anchor:start;fill:#000000;fill-opacity:1;stroke:none;stroke-width:0.26458332"
         id="text1415">
        <path
           d="m 70.000397,94.2202 h 2.7305 q 2.88925,0 2.88925,1.9685 v 3.037417 q 0,1.862663 -2.878667,1.862663 h -2.741083 z m 2.667,6.17008 q 1.9685,0 1.9685,-1.18533 v -3.026833 q 0,-0.381 -0.15875,-0.645584 -0.15875,-0.264583 -0.4445,-0.391583 -0.28575,-0.116417 -0.592667,-0.15875 -0.306917,-0.05292 -0.719667,-0.05292 H 71.02698 v 5.460997 z"
           style=""
           id="path828" />
        <path
           d="m 77.130256,94.114367 h 0.9525 V 95.1092 h -0.9525 z m 0,1.852083 h 0.9525 v 5.12233 h -0.9525 z"
           style=""
           id="path830" />
        <path
           d="m 81.671498,103.41712 q -1.04775,0 -1.767416,-0.11642 v -0.67733 q 1.27,0.14816 1.852083,0.14816 0.73025,0 1.058333,-0.23283 0.338667,-0.23283 0.338667,-0.77258 v -1.22767 q -0.02117,0.33867 -0.465667,0.49742 -0.433916,0.15875 -1.100666,0.15875 -0.79375,0 -1.23825,-0.14817 -0.433917,-0.14817 -0.624417,-0.48683 -0.179917,-0.33867 -0.179917,-0.920753 V 97.55395 q 0,-0.910167 0.486834,-1.30175 0.497416,-0.391583 1.61925,-0.391583 1.3335,0 1.566333,0.60325 V 95.96645 h 0.889 v 5.60917 q 0,0.70908 -0.264583,1.11125 -0.264584,0.40216 -0.79375,0.56091 -0.529167,0.16934 -1.375834,0.16934 z m 0.116417,-2.8575 q 0.751417,0 1.058333,-0.17992 0.306917,-0.17992 0.306917,-0.677333 v -2.31775 q 0,-0.34925 -0.116417,-0.529167 -0.105833,-0.179917 -0.402166,-0.254 -0.296334,-0.08467 -0.867834,-0.08467 -0.53975,0 -0.814916,0.07408 -0.264584,0.07408 -0.370417,0.264583 -0.09525,0.179917 -0.09525,0.529167 v 2.31775 q 0,0.359833 0.105833,0.539753 0.105834,0.17991 0.381,0.254 0.275167,0.0635 0.814917,0.0635 z"
           style=""
           id="path832" />
        <path
           d="m 85.749885,94.114367 h 0.9525 V 95.1092 h -0.9525 z m 0,1.852083 h 0.9525 v 5.12233 h -0.9525 z"
           style=""
           id="path834" />
        <path
           d="m 90.502794,101.19462 q -0.656167,0 -1.026583,-0.13759 -0.370417,-0.14816 -0.53975,-0.48683 -0.15875,-0.34925 -0.15875,-0.973667 v -3.005666 h -1.143 V 95.96645 h 1.143 v -1.5875 h 0.963083 v 1.5875 h 1.830916 v 0.624417 h -1.830916 v 3.058583 q 0,0.381 0.08467,0.5715 0.09525,0.1905 0.3175,0.27517 0.232833,0.0741 0.666749,0.0741 0.137584,0 0.762,-0.0847 v 0.62442 q -0.53975,0.0847 -1.068916,0.0847 z"
           style=""
           id="path836" />
        <path
           d="m 94.189431,101.19462 q -0.73025,0 -1.132417,-0.13759 -0.391583,-0.13758 -0.5715,-0.48683 -0.169333,-0.34925 -0.169333,-1.005417 0,-0.582083 0.15875,-0.899583 0.169333,-0.328083 0.560916,-0.465667 0.402167,-0.137583 1.132417,-0.137583 h 1.534583 v -0.814917 q 0,-0.28575 -0.116416,-0.433916 -0.105834,-0.15875 -0.370417,-0.22225 -0.254,-0.0635 -0.751417,-0.0635 -0.79375,0 -1.756833,0.127 v -0.6985 q 1.04775,-0.09525 1.894417,-0.09525 0.889,0 1.312333,0.137583 0.423333,0.127 0.582083,0.455083 0.15875,0.328084 0.15875,1.016 v 3.619497 h -0.92075 v -0.48683 q -0.116416,0.59267 -1.545166,0.59267 z m 0.15875,-0.62442 q 0.518583,0 0.878416,-0.0741 0.47625,-0.0953 0.47625,-0.4445 v -1.397003 h -1.471083 q -0.455083,0 -0.656167,0.07408 -0.201083,0.0635 -0.264583,0.254 -0.0635,0.1905 -0.0635,0.613833 0,0.381 0.07408,0.592667 0.07408,0.20108 0.264584,0.29633 0.1905,0.0847 0.5715,0.0847 z"
           style=""
           id="path838" />
        <path
           d="m 98.296922,93.68045 h 0.9525 v 7.40833 h -0.9525 z"
           style=""
           id="path840" />
      </g>
      <g
         aria-label="Institute"
         style="font-style:normal;font-variant:normal;font-weight:normal;font-stretch:normal;font-size:10.58333302px;line-height:1.25;font-family:Play;-inkscape-font-specification:'Play, Normal';font-variant-ligatures:normal;font-variant-caps:normal;font-variant-numeric:normal;font-feature-settings:normal;text-align:start;letter-spacing:0px;word-spacing:0px;writing-mode:lr-tb;text-anchor:start;fill:#000000;fill-opacity:1;stroke:none;stroke-width:0.26458332"
         id="text1423">
        <path
           d="m 59.692062,115.48866 h 1.026584 v 6.86859 h -1.026584 z"
           style=""
           id="path843" />
        <path
           d="m 62.43976,117.23491 h 0.9525 v 0.62442 q 0.148167,-0.73025 1.68275,-0.73025 0.98425,0 1.375833,0.35983 0.402167,0.34925 0.402167,1.11125 v 3.75709 h -0.9525 v -3.70417 q 0,-0.20108 -0.03175,-0.32808 -0.03175,-0.127 -0.127,-0.254 -0.211667,-0.26459 -0.941917,-0.26459 -0.560916,0 -0.867833,0.0847 -0.296333,0.0741 -0.423333,0.254 -0.116417,0.17992 -0.116417,0.508 v 3.70417 h -0.9525 z"
           style=""
           id="path845" />
        <path
           d="m 70.062571,122.46308 q -0.814916,0 -1.756833,-0.127 v -0.73025 q 1.23825,0.20108 1.778,0.20108 0.677333,0 0.973667,-0.127 0.296333,-0.13758 0.296333,-0.49741 v -0.51859 q 0,-0.32808 -0.22225,-0.46566 -0.22225,-0.13759 -0.719667,-0.13759 h -0.582083 q -0.79375,0 -1.217083,-0.32808 -0.41275,-0.32808 -0.41275,-0.92075 v -0.47625 q 0,-1.2065 2.286,-1.2065 0.169333,0 1.55575,0.0847 v 0.68791 q -0.941917,-0.14816 -1.598084,-0.14816 -0.751416,0 -1.026583,0.14816 -0.275166,0.14817 -0.275166,0.49742 v 0.43392 q 0,0.51858 0.941916,0.51858 h 0.592667 q 1.61925,0 1.61925,1.2065 v 0.4445 q 0,0.79375 -0.550334,1.13242 -0.550333,0.32808 -1.68275,0.32808 z"
           style=""
           id="path847" />
        <path
           d="m 75.750286,122.46308 q -0.656167,0 -1.026584,-0.13758 -0.370416,-0.14817 -0.53975,-0.48684 -0.15875,-0.34925 -0.15875,-0.97366 v -3.00567 h -1.143 v -0.62442 h 1.143 v -1.5875 h 0.963084 v 1.5875 h 1.830916 v 0.62442 h -1.830916 v 3.05858 q 0,0.381 0.08467,0.5715 0.09525,0.1905 0.3175,0.27517 0.232834,0.0741 0.66675,0.0741 0.137584,0 0.762,-0.0847 v 0.62441 q -0.53975,0.0847 -1.068916,0.0847 z"
           style=""
           id="path849" />
        <path
           d="m 77.860008,115.38283 h 0.9525 v 0.99483 h -0.9525 z m 0,1.85208 h 0.9525 v 5.12234 h -0.9525 z"
           style=""
           id="path851" />
        <path
           d="m 82.612917,122.46308 q -0.656167,0 -1.026584,-0.13758 -0.370416,-0.14817 -0.53975,-0.48684 -0.15875,-0.34925 -0.15875,-0.97366 v -3.00567 h -1.143 v -0.62442 h 1.143 v -1.5875 h 0.963084 v 1.5875 h 1.830916 v 0.62442 h -1.830916 v 3.05858 q 0,0.381 0.08467,0.5715 0.09525,0.1905 0.3175,0.27517 0.232834,0.0741 0.66675,0.0741 0.137584,0 0.762,-0.0847 v 0.62441 q -0.53975,0.0847 -1.068916,0.0847 z"
           style=""
           id="path853" />
        <path
           d="m 86.500637,122.46308 q -0.98425,0 -1.386417,-0.34925 -0.391583,-0.35983 -0.391583,-1.12183 v -3.75709 h 0.9525 v 3.70417 q 0,0.20108 0.03175,0.32808 0.04233,0.11642 0.137583,0.24342 0.1905,0.27517 0.931333,0.27517 0.783167,0 1.100667,-0.14817 0.306917,-0.14817 0.306917,-0.53975 v -3.86292 h 0.9525 v 5.12234 h -0.9525 v -0.62442 q -0.137584,0.73025 -1.68275,0.73025 z"
           style=""
           id="path855" />
        <path
           d="m 92.92753,122.46308 q -0.656167,0 -1.026583,-0.13758 -0.370417,-0.14817 -0.53975,-0.48684 -0.15875,-0.34925 -0.15875,-0.97366 v -3.00567 h -1.143 v -0.62442 h 1.143 v -1.5875 h 0.963083 v 1.5875 h 1.830916 v 0.62442 H 92.16553 v 3.05858 q 0,0.381 0.08467,0.5715 0.09525,0.1905 0.3175,0.27517 0.232833,0.0741 0.66675,0.0741 0.137583,0 0.761999,-0.0847 v 0.62441 q -0.539749,0.0847 -1.068916,0.0847 z"
           style=""
           id="path857" />
        <path
           d="m 97.196254,122.46308 q -2.3495,0 -2.3495,-1.56633 v -2.02142 q 0,-0.93133 0.529166,-1.3335 0.53975,-0.41275 1.735667,-0.41275 1.132417,0 1.629833,0.39158 0.508,0.39159 0.508,1.35467 v 1.13242 h -3.439583 v 0.77258 q 0,0.52917 0.370417,0.762 0.370416,0.23283 1.143,0.23283 0.73025,0 1.725083,-0.254 v 0.73025 q -0.973667,0.21167 -1.852083,0.21167 z m 1.100666,-3.07975 V 118.579 q 0,-0.46567 -0.28575,-0.635 -0.275166,-0.17992 -0.9525,-0.17992 -0.656166,0 -0.9525,0.17992 -0.296333,0.16933 -0.296333,0.635 v 0.80433 z"
           style=""
           id="path859" />
      </g>
      <g
         aria-label="Gold"
         style="font-style:normal;font-variant:normal;font-weight:normal;font-stretch:normal;font-size:10.58333302px;line-height:1.25;font-family:Play;-inkscape-font-specification:'Play, Normal';font-variant-ligatures:normal;font-variant-caps:normal;font-variant-numeric:normal;font-feature-settings:normal;text-align:start;letter-spacing:0px;word-spacing:0px;writing-mode:lr-tb;text-anchor:start;fill:#000000;fill-opacity:1;stroke:none;stroke-width:0.26458332"
         id="text6358">
        <path
           d="m 82.120627,111.82884 q -0.486833,0 -0.867833,-0.0423 -0.370417,-0.0423 -0.783167,-0.15875 -0.465666,-0.127 -0.783166,-0.3175 -0.3175,-0.20109 -0.518584,-0.53975 -0.211666,-0.35984 -0.211666,-0.80434 v -3.24908 q 0,-0.59267 0.306916,-1.016 0.306917,-0.42333 0.846667,-0.61383 0.518583,-0.17992 0.98425,-0.254 0.47625,-0.0847 1.026583,-0.0847 1.312333,0 2.370667,0.16933 v 0.79375 q -0.402167,-0.0952 -1.153584,-0.16933 -0.740833,-0.0847 -1.195916,-0.0847 -2.169583,0 -2.169583,1.24884 v 3.2385 q 0,0.33866 0.201083,0.59266 0.211667,0.254 0.5715,0.37042 0.338667,0.127 0.677333,0.17992 0.338667,0.0423 0.762,0.0423 0.709083,0 1.513417,-0.1905 v -2.40242 h -1.608667 v -0.71966 h 2.561167 v 3.69358 q -1.375834,0.3175 -2.529417,0.3175 z"
           style=""
           id="path862" />
        <path
           d="m 88.322626,111.82884 q -0.677334,0 -1.016,-0.0529 -0.338667,-0.0423 -0.677334,-0.20108 -0.34925,-0.15875 -0.508,-0.508 -0.15875,-0.35983 -0.15875,-0.96308 v -1.778 q 0,-0.47625 0.116417,-0.83609 0.116417,-0.35983 0.306917,-0.56091 0.15875,-0.17992 0.47625,-0.27517 0.328083,-0.10583 0.66675,-0.13758 0.381,-0.0212 0.79375,-0.0212 0.550333,0 0.8255,0.0318 0.28575,0.0212 0.60325,0.10583 0.328083,0.0953 0.507999,0.28575 0.179917,0.1905 0.306917,0.55034 0.116417,0.37041 0.116417,0.85725 v 1.778 q 0,0.89958 -0.41275,1.31233 -0.169334,0.16933 -0.486833,0.26458 -0.3175,0.0952 -0.656167,0.127 -0.402167,0.0212 -0.804333,0.0212 z m 0,-0.62442 q 0.4445,0 0.645583,-0.0212 0.201083,-0.0212 0.391583,-0.11642 0.1905,-0.0847 0.264584,-0.27517 0.08467,-0.20108 0.08467,-0.55033 v -2.07433 q 0,-0.47625 -0.116416,-0.68792 -0.116417,-0.22225 -0.402167,-0.28575 -0.275167,-0.0741 -0.867833,-0.0741 -0.592667,0 -0.878417,0.0741 -0.275167,0.0635 -0.391583,0.28575 -0.116417,0.21167 -0.116417,0.68792 v 2.07433 q 0,0.34925 0.07408,0.55033 0.08467,0.1905 0.275167,0.27517 0.1905,0.0953 0.391583,0.11642 0.201084,0.0212 0.645584,0.0212 z"
           style=""
           id="path864" />
        <path
           d="m 92.168179,104.31467 h 0.9525 v 7.40834 h -0.9525 z"
           style=""
           id="path866" />
        <path
           d="m 96.603588,111.82884 q -0.762,0 -1.195917,-0.14817 -0.433916,-0.15875 -0.635,-0.508 -0.1905,-0.34925 -0.1905,-0.97366 v -2.25425 q 0,-0.77259 0.47625,-1.11125 0.486833,-0.33867 1.598083,-0.33867 0.66675,0 1.143,0.16933 0.486834,0.16934 0.497417,0.48684 h 0.02117 l -0.02117,-1.30175 v -1.53459 h 0.9525 v 7.40834 h -0.931333 v -0.60325 q 0,0.28575 -0.455084,0.48683 -0.455083,0.22225 -1.259416,0.22225 z m 0.201083,-0.65617 q 0.79375,0 1.143,-0.17991 0.34925,-0.17992 0.34925,-0.61384 v -2.52941 q 0,-0.68792 -1.407583,-0.68792 -0.846667,0 -1.100667,0.127 -0.264583,0.127 -0.264583,0.56092 v 2.52941 q 0,0.43392 0.28575,0.61384 0.296333,0.17991 0.994833,0.17991 z"
           style=""
           id="path868" />
      </g>
    </g>
    <g
       id="g1408">
      <rect
         style="fill:#f1af09;fill-opacity:1;fill-rule:nonzero;stroke:#f1af09;stroke-width:0.37559161;stroke-miterlimit:4;stroke-dasharray:none;stroke-opacity:1"
         id="rect846-7"
         width="0.60142916"
         height="15.066408"
         x="105.47927"
         y="100.41935" />
      <rect
         style="fill:#f1af09;fill-opacity:1;fill-rule:nonzero;stroke:#f1af09;stroke-width:0.49912658;stroke-miterlimit:4;stroke-dasharray:none;stroke-opacity:1"
         id="rect823-01-8"
         width="7.0148735"
         height="7.0148735"
         x="102.27255"
         y="115.19865" />
      <rect
         style="fill:#f1af09;fill-opacity:1;fill-rule:nonzero;stroke:#f1af09;stroke-width:0.49912658;stroke-miterlimit:4;stroke-dasharray:none;stroke-opacity:1"
         id="rect823-01-2-8"
         width="7.0148735"
         height="7.0148735"
         x="102.27255"
         y="104.56432" />
      <rect
         style="fill:#f1af09;fill-opacity:1;fill-rule:nonzero;stroke:#f1af09;stroke-width:0.49912658;stroke-miterlimit:4;stroke-dasharray:none;stroke-opacity:1"
         id="rect823-01-26-9"
         width="7.0148735"
         height="7.0148735"
         x="102.27255"
         y="93.930008" />
    </g>
  </g>
</svg>
